<svg id="Layer_1" data-name="Layer 1" xmlns="http://www.w3.org/2000/svg" viewBox="0 0 108 108"><defs><style>.cls-1,.cls-2{fill:none;}.cls-1{stroke:#231f20;}</style></defs><title>kitchen-scale</title><path d="M53.94,13.44c12.75,0,25.5,0,38.25,0,1.23,0,1.57.31,1.49,1.52a45.45,45.45,0,0,0,0,5.22c.07,1.09-.34,1.26-1.32,1.26-7,0-14,0-21-.06-1.39,0-1.71.39-1.61,1.68a33.09,33.09,0,0,1,0,4.67c-.07,1.08.36,1.31,1.34,1.3,3.43-.05,6.87,0,10.31-.05A1.41,1.41,0,0,1,83,30.17q6.69,21.53,13.45,43a2.78,2.78,0,0,1,0,1.71c-2,6.18-4,12.35-5.91,18.54A1.33,1.33,0,0,1,89,94.59q-35.08,0-70.16,0a1.24,1.24,0,0,1-1.42-1c-1.93-6.2-3.91-12.37-5.89-18.55a3.28,3.28,0,0,1,.09-2.12q6.66-21.33,13.27-42.66A1.5,1.5,0,0,1,26.59,29c3.39.07,6.79,0,10.18.05,1.13,0,1.39-.36,1.34-1.4-.07-1.65-.08-3.31,0-5,.06-1-.28-1.3-1.3-1.29-7,.05-14,0-21,.05-1.2,0-1.72-.21-1.62-1.55a37.44,37.44,0,0,0,0-5.08c-.06-1.13.35-1.37,1.41-1.36,8.89,0,17.79,0,26.68,0ZM74.17,61.76A20.25,20.25,0,1,0,53.93,82,20.22,20.22,0,0,0,74.17,61.76Z"/><path d="M57.06,60.11c0,1.25.12,2.47-1,3.43-.86.77-1.8,1.41-3,.94a3.22,3.22,0,0,1-2.34-2.94A40,40,0,0,1,53,48c.16-.44.36-.8.95-.8s.83.38,1,.89A40.05,40.05,0,0,1,57.06,60.11Z"/><path class="cls-1" d="M53.94,13.44c12.75,0,25.5,0,38.25,0,1.23,0,1.57.31,1.49,1.52a45.45,45.45,0,0,0,0,5.22c.07,1.09-.34,1.26-1.32,1.26-7,0-14,0-21-.06-1.39,0-1.71.39-1.61,1.68a33.09,33.09,0,0,1,0,4.67c-.07,1.08.36,1.31,1.34,1.3,3.43-.05,6.87,0,10.31-.05A1.41,1.41,0,0,1,83,30.17q6.69,21.53,13.45,43a2.78,2.78,0,0,1,0,1.71c-2,6.18-4,12.35-5.91,18.54A1.33,1.33,0,0,1,89,94.59q-35.08,0-70.16,0a1.24,1.24,0,0,1-1.42-1c-1.93-6.2-3.91-12.37-5.89-18.55a3.28,3.28,0,0,1,.09-2.12q6.66-21.33,13.27-42.66A1.5,1.5,0,0,1,26.59,29c3.39.07,6.79,0,10.18.05,1.13,0,1.39-.36,1.34-1.4-.07-1.65-.08-3.31,0-5,.06-1-.28-1.3-1.3-1.29-7,.05-14,0-21,.05-1.2,0-1.72-.21-1.62-1.55a37.44,37.44,0,0,0,0-5.08c-.06-1.13.35-1.37,1.41-1.36,8.89,0,17.79,0,26.68,0ZM74.17,61.76A20.25,20.25,0,1,0,53.93,82,20.22,20.22,0,0,0,74.17,61.76Z"/><path class="cls-1" d="M57.06,60.11c0,1.25.12,2.47-1,3.43-.86.77-1.8,1.41-3,.94a3.22,3.22,0,0,1-2.34-2.94A40,40,0,0,1,53,48c.16-.44.36-.8.95-.8s.83.38,1,.89A40.05,40.05,0,0,1,57.06,60.11Z"/><rect class="cls-2" x="10.17" y="9.56" width="90" height="88.88"/></svg>